<?xml version="1.0" standalone="no"?>
<!DOCTYPE svg PUBLIC "-//W3C//DTD SVG 20010904//EN"
 "http://www.w3.org/TR/2001/REC-SVG-20010904/DTD/svg10.dtd">
<svg version="1.0" xmlns="http://www.w3.org/2000/svg"
 width="500.000000pt" height="500.000000pt" viewBox="0 0 500.000000 500.000000"
 preserveAspectRatio="xMidYMid meet">
<metadata>
Created by potrace 1.14, written by Peter Selinger 2001-2017
</metadata>
<g transform="translate(0.000000,500.000000) scale(0.100000,-0.100000)"
fill="#000000" stroke="none">
<path d="M0 2500 l0 -2500 2500 0 2500 0 0 2500 0 2500 -2500 0 -2500 0 0
-2500z m1820 1020 c385 -48 636 -238 738 -560 79 -248 75 -663 -9 -912 -110
-330 -371 -524 -764 -568 -49 -5 -267 -10 -482 -10 l-393 0 0 1030 0 1030 413
0 c227 0 451 -5 497 -10z m2420 -150 l0 -160 -440 0 -440 0 0 -285 0 -285 340
0 340 0 0 -165 0 -165 -340 0 -340 0 0 -420 0 -420 -215 0 -215 0 0 1030 0
1030 655 0 655 0 0 -160z"/>
<path d="M1340 2506 l0 -706 173 0 c200 1 300 16 392 59 114 53 182 145 227
309 20 69 22 103 22 327 1 207 -2 263 -17 327 -35 150 -110 260 -215 316 -100
53 -156 64 -379 69 l-203 6 0 -707z"/>
</g>
</svg>
